<svg xmlns="http://www.w3.org/2000/svg" width="800" height="800" fill="none" viewBox="0 0 800 800">
  <path fill="#D5AB7F" d="m642.4 386.999-127.28 127.24-356.15-356.12 64-63.93a75.725 75.725 0 0 1 59.156-21.981 75.716 75.716 0 0 1 55.264 30.471c29.45 39.91 67.9 89.32 104.68 128.48 79.37 74.44 200.33 155.84 200.33 155.84Z"/>
  <path fill="#EDD5B5" d="m158.971 158.119 356.15 356.12-125.15 125.19s-81.4-120.95-155.84-200.33c-39.16-36.78-88.57-75.23-128.47-104.74a75.694 75.694 0 0 1-30.453-55.233 75.704 75.704 0 0 1 21.953-59.127l61.81-61.88Z"/>
  <path fill="#BB6628" d="m282.57 168.209-111.39 111.39c-16.91 16.91-40.84-8.66-24.75-24.75l111.39-111.4c16.15-16.13 41.62 7.89 24.75 24.76Zm58.181 58.17-111.4 111.39c-16.91 16.92-40.84-8.66-24.75-24.75l111.37-111.39c16.13-16.13 41.62 7.88 24.76 24.75h.02Zm58.22 58.17-111.45 111.39c-16.91 16.92-40.84-8.66-24.75-24.75l111.39-111.39c16.13-16.13 41.63 7.88 24.76 24.75h.05Z"/>
  <path fill="#B2CF38" d="M493.73 388.129c-6.43 22.11 14.08 33.46 13.78 51.82-.41 24.75-35.17 19.09-50.9 24.57-18.46 6.43-32.7 20.37-20.9 40.84 17.18 29.77-18.46 30.49-50.32 31.21-23 .53-55 7.18-62.92 32.65-9.73 31.1 29.7 35.51 33.71 60.58 1.17 7.29-7.45 11.1-10.95 16.24-37.9 55.54 59.42 112.66 102.85 61.46 37.27-43.94-3.95-111.11 78.6-98.38 14.68 2.26 30.43 7.46 45.32 4.08 16.22-3.7 37.45-15.49 41.93-33.17 5.06-20-14.06-37.24-17.44-55.7-9.65-52.76 73.22-33.46 104.09-69.31 24.15-28 32.84-72.51 14.7-105.88-14.76-27.14-64.14-55.81-88.31-22.28-9.73 13.49-11.91 32.07-27.5 41-16.83 9.59-34.77-9.46-52.48-10.57-20-1.25-47.3 10.5-53.23 30.88l-.03-.04Z"/>
  <path fill="#90A83C" d="M531.501 426.489c-3.6 10.59-.49 23.13-5.81 31.83-13.3 21.72-35.43 10.51-54.65 17.21-14.45 5-25.6 16-16.36 32 21.55 37.38-19.14 44.56-46.15 43.62-11.89-.41-22.09 4.49-28.08 14.4-11 18.08 9.46 23.77 12 39.41.92 5.71-5.83 8.69-8.57 12.71-10.11 14.8-8.53 40.89 9.21 50.35 18.81 10 40.11-3.75 43.52-23.19 8.09-46 46.94-62.6 89.33-56.07 11.49 1.77 23.82 5.85 35.48 3.2 12.7-2.89 29.32-12.13 32.83-26 6.91-27.34-30.24-46-20.93-74.86 5.67-17.53 19-30.07 37.38-31.93 19.07-1.94 44.17 0 58-16 9.49-11 13.7-34.67 10.38-48.93-4.93-21.2-31.46-39.79-53-38.14-15.51 1.19-21.171 11.17-28.201 23.58-9.21 16.25-16.479 19.88-35.119 22.17-16.08 2-26.7 11.31-31.25 24.67l-.01-.03Z"/>
  <path fill="#FFD426" d="m535.971 483.819-9.25 22.63c-10.24 25-46.65 9-36.83-15.06l9.26-22.63c9.45-23.12 47.58-11.24 36.82 15.06Z"/>
  <path fill="#ED2524" d="M538.971 387.239c-9.67 9.17-28.69 32.08-28.05 70.15-3.32-.76-6.81-1.58-10.44-2.45-4.56-50.85 29.62-74.48 29.62-74.48l8.87 6.78Z"/>
  <path fill="#EE4546" d="m585.851 423.069-14.881 45.78s-17-1.51-60.1-11.45c-.64-38.08 18.381-61 28.051-70.16l46.93 35.83Z"/>
  <path fill="#ED2524" d="M404.07 561.159c-9.67 9.17-28.7 32.08-28.05 70.15-3.31-.76-6.81-1.58-10.44-2.45-4.56-50.86 29.62-74.48 29.62-74.48l8.87 6.78Z"/>
  <path fill="#EE4546" d="m450.971 596.999-14.91 45.78s-16.94-1.51-60.08-11.46c-.65-38.07 18.38-61 28.05-70.15l46.94 35.83Z"/>
  <path fill="#ED2524" d="M672.57 427.229c-3.21-8.84-12.699-27.59-37.519-37.86 1.42-1.93 2.929-4 4.519-6.07 34.19 11.33 39.881 40.09 39.881 40.09l-6.881 3.84Z"/>
  <path fill="#EE4546" d="m636.211 447.539-25.451-22.54s5.741-10.54 24.291-35.67c24.82 10.27 34.309 29 37.519 37.85l-36.359 20.36Z"/>
  <path fill="#ED2524" d="M510.391 586.999c13.24 1.53 43 1.4 71.79-23.54 1.54 3 3.16 6.23 4.83 9.57-36.06 36.15-76.12 25.13-76.12 25.13l-.5-11.16Z"/>
  <path fill="#EE4546" d="m507.72 527.999 44.66-18s9.72 14 29.8 53.42c-28.77 24.94-58.55 25.07-71.79 23.54l-2.67-58.96Z"/>
  <path fill="#D7863C" d="M471.63 506.059s-12.77 17-7.45 41.51c0 0 35.37 26.93 72.75 17.41 0 0 14-19 5.75-36.3 0 0-15.69-26.88-71-22.62h-.05Z"/>
  <path fill="#BB6628" d="M520.22 494.409s15 18.26 42.75 19c0 0 38.34-31 38-73.78 0 0-16.76-20.09-37.58-15.77 0 0-33.1 9.81-43.13 70.56l-.04-.01Zm-138.97 172.47s15 18.26 42.76 19c0 0 38.34-31 37.95-73.78 0 0-16.759-20.09-37.569-15.77 0 0-33.111 9.81-43.141 70.56v-.01Zm73.191-162.99s-22.9.2-40.36 20.74c0 0 .08 47.83 32.65 73.57 0 0 25.37-.44 34.78-18.79 0 0 12.73-31-27.07-75.52Z"/>
  <path fill="#D7863C" d="M366.861 551.459a48.265 48.265 0 0 0-6.67 37.11s31.62 24.06 65 15.55c0 0 12.509-17 5.139-32.44 0 0-13.999-24-63.509-20.22h.04Z"/>
  <path fill="#FFD426" d="m434.2 612.219-24.18 3.65c-26.74 4-31.6-35.46-5.94-39.34l24.18-3.65c24.7-3.73 34 35.09 5.94 39.34Zm172.71-240.43 13.58 20.33c15 22.51-18.68 43.68-33.1 22.09l-13.57-20.34c-13.86-20.78 17.32-45.72 33.09-22.08Zm36.001 98.94-24.19 3.59c-26.75 4-31.51-35.55-5.83-39.36l24.18-3.59c24.71-3.66 33.94 35.19 5.84 39.36Z"/>
</svg>
