<svg xmlns="http://www.w3.org/2000/svg" width="800" height="800" fill="none" viewBox="0 0 800 800">
  <path fill="#F6C914" d="M357.927 335.814a32.32 32.32 0 0 0-21-21.85 32.197 32.197 0 0 0-6.82-33.97 32.325 32.325 0 0 0 11.417-33.038 32.335 32.335 0 0 0-25.307-24.112 32.262 32.262 0 0 0-3.502-15.118 32.263 32.263 0 0 0-10.158-11.732 32.33 32.33 0 0 0-41.51-48.62 32.328 32.328 0 0 0-53.83-1 32.3 32.3 0 0 0-52 5.8 32.314 32.314 0 0 0-36.382 3.801 32.314 32.314 0 0 0-9.518 35.319 32.322 32.322 0 0 0-34.155 29.031 32.32 32.32 0 0 0 27.705 35.239 32.328 32.328 0 0 0-10.146 34.23 32.33 32.33 0 0 0 27.556 22.7c-9.52 16.8-1.78 39.54 14.39 48.2a32.337 32.337 0 0 0-15.89 37.43c7.61 26.62 27.56 26.31 34.27 26.87a32.281 32.281 0 0 0 26 48.88 32.299 32.299 0 0 0 61.44 5 32.314 32.314 0 0 0 29.496 13.236 32.323 32.323 0 0 0 26.204-18.936 32.328 32.328 0 0 0 45.43-44 32.294 32.294 0 0 0 24.524-27.844 32.289 32.289 0 0 0-17.854-32.526 32.295 32.295 0 0 0 9.64-32.99Z"/>
  <path fill="#F7B318" d="M494.837 337.254a32.307 32.307 0 0 0-13.09-27.37 32.178 32.178 0 0 0 4.23-34.35 32.317 32.317 0 0 0 21.239-27.762 32.323 32.323 0 0 0-16.439-30.848 32.243 32.243 0 0 0-4.52-29.79 32.33 32.33 0 0 0-24.14-59.26 32.333 32.333 0 0 0-36.291-24.011 32.322 32.322 0 0 0-14.509 6.131 32.293 32.293 0 0 0-22.818-18.43 32.3 32.3 0 0 0-28.322 7.63 32.309 32.309 0 0 0-55.86 22.66 32.331 32.331 0 0 0-26.35 59 32.314 32.314 0 0 0-20.393 29.293 32.314 32.314 0 0 0 19.013 30.207c-14.31 13-14.12 37-1.5 50.29a32.347 32.347 0 0 0-26.86 30.53c-1.15 27.66 17.88 33.65 24.07 36.32a32.282 32.282 0 0 0-3.985 44.918 32.289 32.289 0 0 0 13.315 9.672 32.293 32.293 0 0 0 4.367 19.645 32.301 32.301 0 0 0 52.373 4.455 32.304 32.304 0 0 0 23.845 21.851 32.316 32.316 0 0 0 16.727-.744 32.316 32.316 0 0 0 14.108-9.017 32.329 32.329 0 0 0 57-27.49 32.287 32.287 0 0 0 32.04-18.717 32.29 32.29 0 0 0-6.72-36.493 32.298 32.298 0 0 0 19.47-28.32Z"/>
  <path fill="#F6C914" d="M667.707 326.404a32.303 32.303 0 0 0-16.37-25.53 32.18 32.18 0 0 0 0-34.61 32.318 32.318 0 0 0 11.776-47.428 32.317 32.317 0 0 0-14.266-11.332 32.21 32.21 0 0 0-8.16-29 32.328 32.328 0 0 0-8.709-56.04 32.332 32.332 0 0 0-22.571.22 32.348 32.348 0 0 0-39.018-19.322 32.354 32.354 0 0 0-13.642 7.892 32.293 32.293 0 0 0-39.824-13.225 32.297 32.297 0 0 0-12.256 8.795 32.309 32.309 0 0 0-52.62 29.38 32.32 32.32 0 0 0-18.87 61.79 32.316 32.316 0 0 0-13.075 13.297 32.315 32.315 0 0 0 19.075 45.933c-12.61 14.63-9.46 38.44 4.72 50.08a32.35 32.35 0 0 0-22.85 33.61c2.27 27.59 21.9 31.18 28.38 33.07a32.273 32.273 0 0 0-7.015 31.033 32.27 32.27 0 0 0 23.015 21.967 32.299 32.299 0 0 0 59.29 16.9 32.3 32.3 0 0 0 55.73 5.27 32.326 32.326 0 0 0 40.479 4.376 32.33 32.33 0 0 0 12.661-38.696 32.28 32.28 0 0 0 18.31-57.91 32.285 32.285 0 0 0 15.81-30.52Z"/>
  <path fill="#F7B318" d="M703.197 432.634a32.302 32.302 0 0 0-10.83-28.33 32.203 32.203 0 0 0 7-33.9 32.308 32.308 0 0 0 21.154-44.009 32.307 32.307 0 0 0-11.644-13.991 32.228 32.228 0 0 0-2.09-30 32.328 32.328 0 0 0 2.84-56.61 32.33 32.33 0 0 0-22.12-4.39 32.333 32.333 0 0 0-18.733-24.118 32.337 32.337 0 0 0-30.457 2.228 32.31 32.31 0 0 0-50.1-14.94 32.318 32.318 0 0 0-57.51 18.07 32.33 32.33 0 0 0-31 56.67 32.313 32.313 0 0 0-19.217 45.867 32.312 32.312 0 0 0 13.037 13.333c-15.32 11.75-17.07 35.71-5.56 50a32.355 32.355 0 0 0-29.24 28.26c-3.38 27.48 15.1 35 21.06 38.15a32.28 32.28 0 0 0 4.85 55.07 32.297 32.297 0 0 0 16.793 34.383 32.302 32.302 0 0 0 37.827-5.773 32.308 32.308 0 0 0 53.5 16.49 32.329 32.329 0 0 0 59-22.8 32.292 32.292 0 0 0 33.477-16.061 32.292 32.292 0 0 0-3.767-36.939 32.298 32.298 0 0 0 21.73-26.66Z"/>
  <path fill="#FDE712" d="M387.197 504.844a32.325 32.325 0 0 0 12.93-27.44 32.18 32.18 0 0 0 17.328-4.936 32.18 32.18 0 0 0 11.962-13.474 32.323 32.323 0 0 0 48.45-33.33 32.225 32.225 0 0 0 20.23-22.33 32.327 32.327 0 0 0 42.835-37.158 32.33 32.33 0 0 0-12.175-19.002 32.355 32.355 0 0 0 4.416-30.222 32.353 32.353 0 0 0-22.706-20.428 32.287 32.287 0 0 0-9.935-40.819 32.29 32.29 0 0 0-13.985-5.711 32.311 32.311 0 0 0-52.86-29 32.332 32.332 0 0 0-58.51-6.929 32.33 32.33 0 0 0-3.85 23.799 32.312 32.312 0 0 0-46.414 17.896 32.309 32.309 0 0 0-.586 18.644c-19.09-2.91-37.59 12.42-39.92 30.61a32.358 32.358 0 0 0-40.64-1.51c-22.14 16.66-14.72 35.19-12.9 41.69a32.275 32.275 0 0 0-30.022 10.548 32.288 32.288 0 0 0-6.388 31.172 32.289 32.289 0 0 0 17.19 59.2 32.304 32.304 0 0 0-1.859 32.266 32.308 32.308 0 0 0 27.019 17.734 32.333 32.333 0 0 0 17.803 36.614 32.33 32.33 0 0 0 39.507-9.834 32.293 32.293 0 0 0 34.755 13.003 32.289 32.289 0 0 0 24.035-28.273 32.321 32.321 0 0 0 34.29-2.78Z"/>
  <path fill="#F7B318" d="M136.887 242.724a7.735 7.735 0 0 1-4.771 7.158 7.74 7.74 0 1 1 4.771-7.158Zm24.54-39.46c7.367 0 13.34-5.973 13.34-13.34s-5.973-13.34-13.34-13.34c-7.368 0-13.34 5.973-13.34 13.34s5.972 13.34 13.34 13.34Zm50.99 12.72a8.78 8.78 0 1 0 0-17.56 8.78 8.78 0 0 0 0 17.56Zm-26.52 99.06a12.234 12.234 0 0 1-14.625 12.015 12.24 12.24 0 0 1 2.395-24.245 12.228 12.228 0 0 1 12.23 12.23Z"/>
  <path fill="#F6C914" d="M374.587 339.344c0 2.385-.707 4.717-2.033 6.7a12.053 12.053 0 0 1-12.38 5.128 12.057 12.057 0 0 1-8.789-16.443 12.053 12.053 0 0 1 4.442-5.412 12.065 12.065 0 0 1 15.228 1.499 12.065 12.065 0 0 1 3.532 8.528Zm77.31-6.01a6.06 6.06 0 1 1-12.12.02 6.06 6.06 0 0 1 12.12-.02Zm18.93-47.85a6.269 6.269 0 0 1-7.493 6.149 6.27 6.27 0 1 1 7.493-6.149Zm24.76 46.78a4.995 4.995 0 0 1-3.087 4.62 5.003 5.003 0 0 1-6.817-3.644 4.995 4.995 0 0 1 .285-2.889 4.994 4.994 0 0 1 4.619-3.087c1.326 0 2.598.527 3.535 1.465a4.997 4.997 0 0 1 1.465 3.535Z"/>
  <path fill="#DCE9EC" d="M718.497 351.394c-10.61 77-42.28 249.43-86.86 360.2h-457.52c-22.85-56.88-40.07-120.33-52.7-179.79-10.88-51.2-19.37-105.81-22.37-134.37l619.45-46.04Z"/>
  <path fill="#53C5D5" d="M174.777 391.794v39.06h-71.39c-3.05-21-4.39-33.42-4.39-33.42l75.78-5.64Zm100.95 39.06h-100.96v100.96h100.96v-100.96Zm100.96-54.07v54.07h-100.96v-46.55l100.96-7.52Zm100.96 54.07h-100.96v100.96h100.96v-100.96Zm-100.96 100.96h-100.96v100.96h100.96v-100.96Zm201.91-170.01v69.05h-100.96v-61.56l100.96-7.49Zm.01 170.01h-100.96v100.96h100.96v-100.96Zm100.96-100.96h-100.96v100.96h100.96v-100.96Zm38.93-79.46s-4.41 32-13 79.46h-25.93v-76.57l38.93-2.89Zm-59.79 281.37c-8.2 27.61-17.24 54.4-27.07 78.83h-53v-78.83h80.07Zm-382.98 0h-100.95v78.84h100.95v-78.84Z"/>
  <path fill="#53C5D5" d="M174.777 531.804v101h-27.89c-10.38-34.88-18.78-69.46-25.47-101h53.36Zm302.86 100.96h-100.95v78.84h100.95v-78.84Zm207.24-100.95h-5.31v22.56c1.833-7.54 3.603-15.06 5.31-22.56Z"/>
</svg>
