<?xml version="1.0" encoding="UTF-8"?>
<svg xmlns="http://www.w3.org/2000/svg" id="Outline" viewBox="0 0 512 512" width="512" height="512"><path d="M242.343,149.657a8,8,0,0,0,11.314-11.314l-16-16a8,8,0,0,0-11.314,0l-16,16a8,8,0,0,0,11.314,11.314L224,147.313v86.063a23.99,23.99,0,0,0-13.655,32.965L168,308.687v-3.314a8,8,0,0,0-16,0V328a8,8,0,0,0,8,8h22.627a8,8,0,0,0,0-16h-3.314l42.346-42.345A24,24,0,1,0,240,233.376V147.313ZM232,264a8,8,0,1,1,8-8A8.009,8.009,0,0,1,232,264Z"/><path d="M443.872,392H464a32.036,32.036,0,0,0,32-32V344a32.036,32.036,0,0,0-32-32H448v-8a7.988,7.988,0,0,0-3.936-6.882A217.527,217.527,0,0,0,448,256,216,216,0,0,0,79.265,103.265,216,216,0,0,0,232,472a218.361,218.361,0,0,0,33.156-2.542A38.79,38.79,0,0,0,278.984,472H457.016A39.028,39.028,0,0,0,496,433.016V432a8,8,0,0,0-8-8H421.185A72.276,72.276,0,0,0,443.872,392ZM464,328a16.019,16.019,0,0,1,16,16v16a16.019,16.019,0,0,1-16,16H447.545a72.383,72.383,0,0,0,.455-8V328ZM32,256C32,145.72,121.72,56,232,56s200,89.72,200,200a201.4,201.4,0,0,1-4.016,40H411.61A184.819,184.819,0,0,0,416,256c0-101.458-82.542-184-184-184S48,154.542,48,256s82.542,184,184,184c2.879,0,5.745-.077,8.6-.207a38.764,38.764,0,0,0,6.513,15.633c-5.026.376-10.074.574-15.115.574C121.72,456,32,366.28,32,256ZM288.8,414.158a166.322,166.322,0,0,1-48.8,9.648V416a8,8,0,0,0-16,0v7.805a167.354,167.354,0,0,1-104.948-43.544l5.468-5.467a8,8,0,0,0-11.314-11.314l-5.467,5.468A167.354,167.354,0,0,1,64.195,264H72a8,8,0,0,0,0-16H64.195a167.354,167.354,0,0,1,43.544-104.948l5.467,5.468a8,8,0,0,0,11.314-11.314l-5.468-5.467A167.354,167.354,0,0,1,224,88.2V96a8,8,0,0,0,16,0V88.2a167.354,167.354,0,0,1,104.948,43.544l-5.468,5.467a8,8,0,0,0,11.314,11.314l5.467-5.468A167.354,167.354,0,0,1,399.805,248H392a8,8,0,0,0,0,16h7.789a168.141,168.141,0,0,1-4.585,32H280a8,8,0,0,0-8,8v64A71.666,71.666,0,0,0,288.8,414.158ZM478.916,440a23.025,23.025,0,0,1-21.9,16H278.984a23.025,23.025,0,0,1-21.9-16ZM344,424a56.064,56.064,0,0,1-56-56V312H432v56a56.064,56.064,0,0,1-56,56Z"/><path d="M304,280a8,8,0,0,0,8-8c0-6.111,1.324-8.759,3.155-12.422A38.863,38.863,0,0,0,320,240a8,8,0,0,0-16,0c0,6.111-1.324,8.759-3.155,12.422A38.863,38.863,0,0,0,296,272,8,8,0,0,0,304,280Z"/><path d="M344,280a8,8,0,0,0,8-8c0-6.111,1.324-8.759,3.155-12.422A38.863,38.863,0,0,0,360,240a8,8,0,0,0-16,0c0,6.111-1.324,8.759-3.155,12.422A38.863,38.863,0,0,0,336,272,8,8,0,0,0,344,280Z"/></svg>
