<?xml version="1.0"?>
<svg xmlns="http://www.w3.org/2000/svg" id="Out_line" data-name="Out line" viewBox="0 0 512 512" width="512" height="512"><title>coffee-shop-business-drip-glass</title><path d="M416,440a24.0275,24.0275,0,0,0,24-24V336A112.14283,112.14283,0,0,0,335.79346,224.27563L348.16309,207.783A40.05657,40.05657,0,0,0,384,168a8.00039,8.00039,0,0,0-8-8H276.13281L319.2627,59.36328l15.89257-31.78516A7.99951,7.99951,0,0,0,328,16H136a7.99951,7.99951,0,0,0-7.15527,11.57812L144.7373,59.36328,187.86719,160H80a8.00039,8.00039,0,0,0-8,8,40.05657,40.05657,0,0,0,35.83691,39.783l15.073,20.09717a24.20708,24.20708,0,0,0-3.88159,3.15014,23.99579,23.99579,0,0,0,7.49487,39.01465L88.47168,447.61914A40.00007,40.00007,0,0,0,127.584,496H328.416a40.00007,40.00007,0,0,0,39.1123-48.38086L330.04907,272.71631A72.09873,72.09873,0,0,1,392,344v72A24.0275,24.0275,0,0,0,416,440ZM140.00024,224l-12-16H327.99976l-12,16ZM307.05566,48H260.94434l-8-16h62.11132Zm-72-16,8,16H156.94434l-8-16ZM164.13281,64H299.86719l-41.14258,96H205.27539ZM89.37109,176H366.62891A24.04166,24.04166,0,0,1,344,192H112A24.04166,24.04166,0,0,1,89.37109,176ZM313.533,272l22.81592,106.47412a138.09445,138.09445,0,0,1-101.94556-.52881l-10.51953-4.208a154.69283,154.69283,0,0,0-102.24805-4.52392L142.467,272Zm33.54712,199.08789A23.89383,23.89383,0,0,1,328.416,480H127.584a24.00114,24.00114,0,0,1-23.46777-29.0293l13.62354-63.57617a138.78669,138.78669,0,0,1,100.20166,1.19824l10.51953,4.208A153.96577,153.96577,0,0,0,339.74243,394.311l12.14136,56.65966A23.89557,23.89557,0,0,1,347.08008,471.08789ZM320,256H136.002a8,8,0,1,1-.0039-16H328a96.10874,96.10874,0,0,1,96,96v80a8,8,0,0,1-16,0V344A88.09957,88.09957,0,0,0,320,256Z"/><path d="M232,352a24.0275,24.0275,0,0,0,24-24c0-10.22754-12.18066-28.96484-17.418-36.54688a7.9996,7.9996,0,0,0-13.16406,0C220.18066,299.03516,208,317.77246,208,328A24.0275,24.0275,0,0,0,232,352Zm.00195-41.17285c4.6045,7.75586,7.92969,14.72461,7.99805,17.17871a8,8,0,0,1-16,.00293C224.06543,325.56348,227.39258,318.5918,232.002,310.82715Z"/></svg>
