<svg id="_x31_" height="512" viewBox="0 0 24 24" width="512" xmlns="http://www.w3.org/2000/svg"><path d="m21.5 23h-15c-1.378 0-2.5-1.122-2.5-2.5v-2.5c0-5.514 4.486-10 10-10s10 4.486 10 10v2.5c0 1.378-1.122 2.5-2.5 2.5zm-7.5-14c-4.962 0-9 4.038-9 9v2.5c0 .827.673 1.5 1.5 1.5h15c.827 0 1.5-.673 1.5-1.5v-2.5c0-4.962-4.038-9-9-9z"/><path d="m21.5 12.5c-.276 0-.5-.224-.5-.5v-3c0-3.86-3.14-7-7-7s-7 3.14-7 7v3c0 .276-.224.5-.5.5s-.5-.224-.5-.5v-3c0-4.411 3.589-8 8-8s8 3.589 8 8v3c0 .276-.224.5-.5.5z"/><path d="m4.5 17c-.128 0-.256-.049-.354-.146l-4-4c-.195-.195-.195-.512 0-.707 1.298-1.298 3.409-1.298 4.707 0l1 1c.195.195.195.512 0 .707s-.512.195-.707 0l-1-1c-.787-.787-2.001-.892-2.901-.315l3.608 3.608c.195.195.195.512 0 .707-.097.097-.225.146-.353.146z"/><path d="m15.963 14h-3.927c-1.131 0-2.125-.763-2.416-1.856l-.603-2.265c-.071-.267.087-.541.354-.612.268-.072.541.087.612.354l.604 2.265c.175.656.771 1.114 1.45 1.114h3.927c.679 0 1.275-.458 1.45-1.114l.604-2.265c.071-.267.347-.425.612-.354.267.071.425.345.354.612l-.604 2.265c-.292 1.093-1.286 1.856-2.417 1.856z"/><path d="m14 9c-.276 0-.5-.224-.5-.5v-2c0-.276.224-.5.5-.5s.5.224.5.5v2c0 .276-.224.5-.5.5z"/><path d="m15.5 7h-3c-.276 0-.5-.224-.5-.5s.224-.5.5-.5h3c.276 0 .5.224.5.5s-.224.5-.5.5z"/></svg>