<svg xmlns="http://www.w3.org/2000/svg" width="800" height="800" fill="none" viewBox="0 0 800 800">
  <path fill="#ED2D24" d="M414.266 371.995c.948-8.137 8.008-15.327 19.103-19.06-11.578-16.439-5.698-31.189 7.043-34.577 8.896-2.396 20.853.75 31.896 9.776l.793.698c.129-.31.224-.664.354-1 4.913-13.603 13.689-22.474 22.697-24.844 12.845-3.449 25.259 6.767 23.276 27.034 11.388-2.19 21.172.448 26.284 6.896l26.198-6.974c-18.879-66.051-57.482-84.111-99.516-72.896l-36.611 9.759c-42.439 11.345-65.517 46.249-46.75 111.93l25.233-6.742Z"/>
  <path fill="#A61E22" d="M389.069 378.759c-18.793-65.689 4.31-100.593 46.715-111.938l36.612-9.758c42.051-11.207 80.68 6.896 99.541 72.904l9.268-2.474c-9.604-33.621-24.741-57.362-44.948-70.689-18.767-12.31-41.741-15.353-66.448-8.741l-36.603 9.758c-24.835 6.621-42.973 20.69-52.482 40.646-10.181 21.457-10.517 49.284-.939 82.758l9.284-2.466Z"/>
  <path fill="#fff" d="M449.773 292.069c-2.836-9.931 1.38-15.439 8.018-17.189 6.638-1.75 13.146.862 15.991 10.784 2.845 9.923-5.681 25.207-5.681 25.207s-15.517-8.871-18.328-18.802Zm-46.318 20.684c-6.198-5.767-5.612-11.302-1.793-15.172 3.819-3.871 9.483-4.707 15.698 1.069 6.216 5.776 6.785 19.827 6.785 19.827s-14.509.035-20.69-5.724Zm118.689-31.692c2.25-8.026-1.172-12.474-6.534-13.914-5.362-1.44-10.629.672-12.931 8.715-2.302 8.043 4.733 20.336 4.733 20.336s12.413-7.112 14.732-15.137Z"/>
  <path fill="#698E3D" d="M595.37 549.946c-4.75-1.345-136.438-20.603-182.222 2.586 1.439-4.19.215-11.414-3.492-18.672l333.496-162.653.061.129c13.465 24.603 6.663 56.758-18.336 75.335 30.447 21.552 25.654 58.499-8.716 75.301-30.232 14.75-53.232 3.259-62.37 4.853-3.5 23.19-30.896 30.836-58.421 23.121Z"/>
  <path fill="#A8C538" d="M743.288 371.317h-.069l-333.618 162.42c-3.733-7.215-8.862-12.508-13.224-14.017 46.551-21.914 109.249-135.705 110.965-140.205 10.086-26.069 32.758-42.81 54.042-31.672 6.724-6.155 10.966-30.888 41.207-45.603 34.405-16.741 67.758 1.638 67.387 38.206 30.336-8.387 61.06 5.569 73.31 30.871Z"/>
  <path fill="#698E3D" d="M206.687 555.006c4.742-1.414 136.146-22.466 182.249.129-1.509-4.172-.371-11.414 3.232-18.724L56.482 378.309l-.052.129c-13.13 24.785-5.896 56.853 19.353 75.086-30.172 21.982-24.844 58.844 9.742 75.172 30.43 14.336 53.266 2.517 62.43 3.991 3.819 23.138 31.353 30.413 58.732 22.319Z"/>
  <path fill="#A8C538" d="M56.34 378.425h.069l335.805 157.878c3.629-7.259 8.689-12.621 13.026-14.19-46.801-21.275-111.085-134.197-112.869-138.679-10.431-25.931-33.353-42.353-54.465-30.931-6.819-6.095-11.388-30.775-41.87-45.103-34.629-16.276-67.723 2.586-66.861 39.12-30.413-7.931-60.913 6.44-72.835 31.905Z"/>
  <path fill="#EFA7A8" d="M464.848 324.749c0 49.577-41.379 89.766-92.439 89.766-51.06 0-92.447-40.189-92.456-89.758C279.945 275.189 321.349 235 372.4 235c51.052 0 92.439 40.18 92.448 89.749Z"/>
  <path fill="#EA9696" d="M394.054 310.716v-11.698a8.56 8.56 0 1 0-17.121 0c0 3.181.535 6.896-3.189 9.75l-14.052 11.008a8.138 8.138 0 0 0-2.848 8.804 8.139 8.139 0 0 0 1.547 2.868l16.637 20.06a8.75 8.75 0 0 0 12.069 1.268l17.198-13.474a8.139 8.139 0 0 0 1.293-11.698c-10.077-12.155-11.56-12.931-11.56-16.88l.026-.008Zm-37.287-41.745 6.732-4.595a5.558 5.558 0 0 0 2.395-3.661 5.576 5.576 0 0 0-.99-4.261 5.953 5.953 0 0 0-8.146-1.379c-1.828 1.25-3.733 2.991-6.896 2.12l-11.837-3.293a5.862 5.862 0 0 0-7.232 3.905l-5 16.914a5.683 5.683 0 0 0 .54 4.363 5.7 5.7 0 0 0 3.486 2.68l14.56 4.034a5.87 5.87 0 0 0 7.233-3.896c3.025-10.267 2.905-11.379 5.172-12.931h-.017Z"/>
  <path fill="#FACFCE" d="M332.268 301.213h-26.154a7.5 7.5 0 0 0-7.604 7.387v34.241a7.49 7.49 0 0 0 4.726 6.86 7.477 7.477 0 0 0 2.878.528h5.482a7.483 7.483 0 0 0 6.985-4.529 7.478 7.478 0 0 0 .61-2.859 7.473 7.473 0 0 1 2.268-5.264 7.476 7.476 0 0 1 5.327-2.115c2.784 0 13.077 1.362 13.086-7.379V308.6a7.505 7.505 0 0 0-2.267-5.267 7.502 7.502 0 0 0-5.328-2.12h-.009Zm19.038 74.3v20.155a5.936 5.936 0 0 0 1.803 4.181 5.944 5.944 0 0 0 4.232 1.681h27.982a5.938 5.938 0 0 0 6.034-5.853v-4.233a5.956 5.956 0 0 0-6.034-5.853 5.968 5.968 0 0 1-6.034-5.862c0-2.13 1.12-10.087-6.035-10.087h-15.913a5.954 5.954 0 0 0-5.552 3.599 5.939 5.939 0 0 0-.483 2.272Zm72.058-105.668a7.218 7.218 0 0 1-7.31 7.095h-29.172a7.202 7.202 0 0 1-7.293-7.095 7.178 7.178 0 0 1 2.185-5.051 7.182 7.182 0 0 1 5.116-2.027h29.164a7.198 7.198 0 0 1 7.31 7.078Zm23.381 46.686a15.78 15.78 0 0 1-9.417 14.898 15.777 15.777 0 1 1-6.35-30.216 15.511 15.511 0 0 1 11.064 4.385 15.524 15.524 0 0 1 4.703 10.933Zm-23.383 58.989a7.918 7.918 0 0 1-4.718 7.474 7.916 7.916 0 0 1-10.935-5.604 7.92 7.92 0 0 1 3.313-8.195 7.915 7.915 0 0 1 4.418-1.356 7.794 7.794 0 0 1 5.552 2.2 7.794 7.794 0 0 1 2.37 5.481Zm-84.423-.068a7.822 7.822 0 0 1-1.206 4.399 7.821 7.821 0 0 1-3.457 2.975 7.811 7.811 0 1 1-3.148-14.96 7.694 7.694 0 0 1 5.482 2.17 7.687 7.687 0 0 1 2.329 5.416Zm28.049-79.495a5.4 5.4 0 0 1-3.22 5.109 5.406 5.406 0 1 1-2.185-10.35 5.335 5.335 0 0 1 5.405 5.241Z"/>
  <path fill="#ED2D24" d="M191.923 491.087c-5.664-5.931-6.689-15.948-2.483-26.871-20.034-1.594-27.637-15.517-22.103-27.499 3.836-8.379 13.888-15.578 27.871-18.284.379-.069.715-.121 1.051-.164-.164-.302-.37-.604-.543-.914-7.336-12.465-8.551-24.888-4.629-33.336 5.543-12.069 21.336-15.12 35.689-.664 5.586-10.163 13.862-16.008 22.095-15.81l11.361-24.62c-62.887-27.664-101.438-9.483-119.679 30.06l-15.836 34.362c-18.387 39.904-6.25 79.947 56.301 107.455l10.905-23.715Z"/>
  <path fill="#A61E22" d="M181.045 514.797c-62.551-27.491-74.689-67.534-56.301-107.438l15.853-34.379c18.215-39.534 56.827-57.706 119.662-30.043l4.017-8.715c-31.973-14.052-59.938-17.595-83.085-10.534-21.448 6.551-38.473 22.284-49.137 45.516L116.192 403.6c-10.767 23.345-11.517 46.284-2.241 66.379 10.008 21.551 31.206 39.559 63.077 53.568l4.017-8.75Z"/>
  <path fill="#fff" d="M153.077 412.727c-9.483-4.156-10.991-10.914-8.104-17.147 2.888-6.232 9.043-9.577 18.509-5.413 9.465 4.163 15.732 20.491 15.732 20.491s-16.68 6.241-26.137 2.069Zm-13.697 48.892c-8.388 1.087-12.276-2.896-12.81-8.318-.535-5.423 2.439-10.302 10.844-11.388 8.405-1.086 19.569 7.413 19.569 7.413s-9.198 11.181-17.603 12.293Zm51.451-111.602c-4.741-6.897-10.344-7.069-14.887-3.862-4.543 3.207-6.268 8.62-1.526 15.517 4.741 6.896 18.672 9.353 18.672 9.353s2.457-14.138-2.259-21.008Z"/>
  <path fill="#5C7635" d="M316.685 332.52c0 39.724-33.172 71.922-74.077 71.913-40.904-.009-74.085-32.189-74.076-71.913.008-39.724 33.18-71.922 74.076-71.922 40.896 0 74.077 32.155 74.077 71.922Z"/>
  <path fill="#A1C53A" d="M303.362 332.532c0 32.568-27.198 58.99-60.758 58.99s-60.775-26.422-60.775-58.99c0-32.569 27.215-58.991 60.775-59 33.56-.008 60.758 26.423 60.758 59Z"/>
  <path fill="#fff" d="M267.044 332.533c0 13.061-10.913 23.647-24.353 23.647-13.439 0-24.353-10.586-24.353-23.647 0-13.06 10.896-23.646 24.344-23.646 13.449 0 24.362 10.604 24.362 23.646Z"/>
  <path fill="#FCDB4E" d="M397.681 275.662v289.427H119.029c-31.991 0-53.836-32.612-41.379-62.068 48.948-115.852 172.239-227.359 320.031-227.359Z"/>
  <path fill="#FBB435" d="M397.696 315.176v249.996H144.604c-35.431 0-56.99-38.663-38.741-69.033 60.517-100.697 168.559-181.015 291.833-180.963Z"/>
  <path fill="#FAD229" d="M397.701 275.662v289.427h278.643c31.991 0 53.835-32.612 41.379-62.068-48.948-115.852-172.24-227.359-320.022-227.359Z"/>
  <path fill="#FAAE17" d="M397.701 315.176v249.996h253.083c35.431 0 56.991-38.663 38.741-69.033-60.491-100.697-168.558-181.015-291.824-180.963Z"/>
  <path fill="#F58720" d="M386.058 425.408c0 2.697-.8 5.334-2.299 7.576a13.63 13.63 0 0 1-14 5.799 13.636 13.636 0 0 1-9.939-18.594 13.651 13.651 0 0 1 5.023-6.121 13.638 13.638 0 0 1 21.215 11.34Zm-102.157 54.286a13.636 13.636 0 0 1-8.439 12.582 13.634 13.634 0 0 1-14.854-2.977 13.631 13.631 0 0 1-2.939-14.862 13.634 13.634 0 0 1 12.603-8.407 13.624 13.624 0 0 1 9.649 4.004 13.621 13.621 0 0 1 3.98 9.66Zm-4.237-77.307a9.38 9.38 0 1 1-9.37-9.379 9.382 9.382 0 0 1 6.629 2.748 9.364 9.364 0 0 1 2.741 6.631Zm-85.202 125.56a9.38 9.38 0 1 1-18.76.086 9.38 9.38 0 0 1 18.76-.086Zm224.928-31.844a13.63 13.63 0 1 0 27.258 0 13.63 13.63 0 0 0-27.258 0Zm31.154-117.029a13.638 13.638 0 1 0 8.417-12.602 13.616 13.616 0 0 0-7.381 7.381 13.631 13.631 0 0 0-1.036 5.221Zm63.962 23.313a9.38 9.38 0 0 0 18.58 1.825 9.39 9.39 0 0 0-.538-5.42 9.375 9.375 0 0 0-8.671-5.784 9.379 9.379 0 0 0-6.629 2.748 9.383 9.383 0 0 0-2.742 6.631Zm85.191 125.56a9.378 9.378 0 0 0 15.999 6.688 9.383 9.383 0 0 0-1.411-14.444 9.38 9.38 0 0 0-14.588 7.756Z"/>
</svg>
