<svg xmlns="http://www.w3.org/2000/svg" width="800" height="800" fill="none" viewBox="0 0 800 800">
  <path fill="#A6CA38" d="M182.546 172.912c1.42 24.6-92.88 58.54 53.61 97.73 13.65-16.44 98.65-113.29 103.03-125.74 12.89-36.59-59.62-92.6-84.68-62.17-18.93 23 19.58 38.12 18.67 48.24-.77 8.54-9.81 13.38-17.7 13.62-13.47.41-22.17-16.59-35.1-19.83-21.64-5.36-40.29 5.24-37.83 48.15Z"/>
  <path fill="#8BA43C" d="M203.566 318.392A83.002 83.002 0 0 1 75.433 257.48a83 83 0 0 1 13.193-54.028l114.94 114.94Z"/>
  <path fill="#DBE12B" d="M190.506 305.332a65 65 0 0 1-88.81-88.82l88.81 88.82Z"/>
  <path fill="#CA2027" d="M240.796 170.202c-123.26-74.07-160.14 119.71-47.79 154.48 112.35 34.77 191.33-145.96 47.79-154.48Z"/>
  <path fill="#EF5123" d="M234.407 190.792c-89.551-53.79-116.33 86.98-34.72 112.21 81.61 25.23 139.029-106 34.72-112.21Z"/>
  <path fill="#F7E8C4" d="M201.866 296.002c-4-1.25-5.24-8.73-2.78-16.7 2.46-7.97 7.71-13.45 11.74-12.21 4.03 1.24 5.22 8.73 2.77 16.71-2.45 7.98-7.72 13.45-11.73 12.2Zm5.76-91.68c-2.32 3.51-9.84 2.6-16.81-2-6.97-4.6-10.74-11.2-8.43-14.69 2.31-3.49 9.84-2.6 16.81 2 6.97 4.6 10.74 11.18 8.43 14.69Zm-12.47 26.68c-1.35 4-8.85 5-16.77 2.37s-13.24-8-11.92-12c1.32-4 8.85-5 16.78-2.37 7.93 2.63 13.23 8.06 11.91 12Zm1.02 22.84c1.19 4-4.36 9.2-12.38 11.55-8.02 2.35-15.46 1-16.66-3.06-1.2-4.06 4.37-9.2 12.39-11.54s15.48-.98 16.65 3.05Zm52.61-36.35c-.08 4.21 6.63 7.71 15 7.84 8.37.13 15.22-3.16 15.22-7.33s-6.66-7.72-15-7.86c-8.34-.14-15.14 3.16-15.22 7.35Zm-4.78 29.08c-1.15 4 4.44 9.16 12.48 11.43 8.04 2.27 15.49.85 16.64-3.19 1.15-4.04-4.45-9.14-12.5-11.42-8.05-2.28-15.51-.85-16.62 3.18Zm-13.76 18.23c-3.22 2.67-1.59 10.06 3.71 16.54 5.3 6.48 12.21 9.54 15.46 6.87 3.25-2.67 1.6-10.05-3.69-16.5-5.29-6.45-12.21-9.56-15.48-6.91Z"/>
  <path fill="#BB862E" d="m266.456 309.452-46.45 82.08-86.47-160.81c55.96 2.48 102.38 36.06 132.92 78.73Z"/>
  <path fill="#A6CA38" d="m163.106 387.522 113.9-137.16c-42.24-42.06-90.81 1.53-91.82 2.79-12.35 15.51-34.09-.52-48.24-4.37-10.44-2.84-16.88-1.44-23.69 7-9.05 11.2-4.47 20.7-3.71 34 1.28 22.31-38.83 31-27.29 55.34 12.04 25.49 56.83 35.97 80.85 42.4Z"/>
  <path fill="#DBE12B" d="M244.276 417.582c19.67-28 108.56-150.76 109.3-155.35 1.64-10.23-24.2-50.35-68-19.73-13.29 9.29-22.38 17.24-36.06 7.05-10.92-8.14-31.81-39.2-56.9-24.54-19.53 11.42-7.11 21.61-5.54 36.16 1.93 17.23-10.21 16.83-21.82 12.64-95.54-34.28-18.64 117.65 79.02 143.77Z"/>
  <path fill="#EF5123" d="m256.061 120.34-31.141 31.141 32.258 32.259 31.141-31.141-32.258-32.259Z"/>
  <path fill="#BB862E" d="M314.236 398.182c92.36-24.66 69.42-243.46-65.13-287.25l65.13 287.25Z"/>
  <path fill="#F6C914" d="m713.506 536.082-76.71 76.71a39.267 39.267 0 0 1-55.53 0l-277.08-277.07c-103.12-103.13 40.37-224.12 40.37-224.12l369 369a39.258 39.258 0 0 1-.05 55.48Z"/>
  <path fill="#F7B318" d="M367.866 329.142c-19.47 19.47-48.67-10-29.33-29.34l52.24-52.24c19.45-19.46 48.711 9.95 29.331 29.33l-52.241 52.25Zm79.341 79.34c-19.47 19.47-48.671-10-29.341-29.34l52.25-52.24c19.46-19.46 48.711 10 29.331 29.34l-52.24 52.24Zm79.339 79.34c-19.47 19.47-48.67-10-29.34-29.34l52.25-52.24c19.46-19.46 48.71 10 29.33 29.34l-52.24 52.24Zm79.34 79.34c-19.47 19.47-48.68-10-29.34-29.34l52.25-52.24c19.45-19.46 48.71 9.95 29.33 29.33l-52.24 52.25Z"/>
  <path fill="#F7B318" d="m636.796 612.792-101.4 101.4a39.267 39.267 0 0 1-55.53 0l-369-369 8.14-8.01c103.71-96.76 166.64-20 190.75 4.08l271.51 271.53a39.27 39.27 0 0 0 55.53 0Z"/>
</svg>
