<svg xmlns="http://www.w3.org/2000/svg" width="800" height="800" fill="none" viewBox="0 0 800 800">
  <g clip-path="url(#a)">
    <path fill="#FDBE10" d="M706.76 367.39c.596-5.085.907-10.2.93-15.32C707.69 237.71 569.16 145 398.27 145c-170.89 0-309.44 92.71-309.44 207.07.033 5.12.344 10.234.93 15.32h617ZM89.71 558.62a93.022 93.022 0 0 0-.88 12.23c0 46.16 32.8 83.56 73.27 83.56h472.33c40.47 0 73.26-37.4 73.26-83.56a94.761 94.761 0 0 0-.86-12.23H89.71Z"/>
    <path fill="#673B16" d="M725 480c0 32.39-24.19 58.65-54 58.65H129c-29.81.01-54-26.25-54-58.65s24.19-58.67 54-58.67h542c29.83 0 54 26.27 54 58.67Z"/>
    <path fill="#E31C3A" d="M691.57 367.39H103.8v38.94h587.77v-38.94Z"/>
    <path fill="#FBED21" d="M691.72 540.28h-595v20.65h92.6l78.16 45.32 52.65-45.32h371.59v-20.65Z"/>
    <path fill="#94B73D" d="M691.72 403.22h-595v20.65h282.33a35.534 35.534 0 0 0-1.43 9.8c0 23.39 22.65 42.35 50.56 42.35a55.813 55.813 0 0 0 35.22-12c13.8 22 39.47 36.82 68.92 36.82 44 0 79.74-33 79.74-73.81 0-1.07-.12-2.12-.17-3.17h79.83v-20.64Z"/>
    <path fill="#F1932E" d="M266.6 271.27c0 8.33-15 15.08-33.6 15.08s-33.62-6.75-33.62-15.08S214.43 256.2 233 256.2c18.57 0 33.6 6.8 33.6 15.07Zm89.23-45.67c0 8.33-15.05 15.09-33.62 15.09-18.57 0-33.6-6.76-33.6-15.09s15-15.07 33.6-15.07 33.62 6.75 33.62 15.07Zm80.04 41.86c0 8.33-15 15.08-33.61 15.08s-33.61-6.75-33.61-15.08 15-15.08 33.61-15.08 33.61 6.75 33.61 15.08ZM521 230.82c0 8.32-15.05 15.08-33.61 15.08s-33.61-6.76-33.61-15.08 15.05-15.08 33.61-15.08S521 222.49 521 230.82Zm64.82 51.72c0 8.32-15.05 15.08-33.61 15.08s-33.61-6.76-33.61-15.08 15-15.08 33.61-15.08 33.61 6.75 33.61 15.08Z"/>
  </g>
  <defs>
    <clipPath id="a">
      <path fill="#fff" d="M0 0h650v509.41H0z" transform="translate(75 145)"/>
    </clipPath>
  </defs>
</svg>
