<svg xmlns="http://www.w3.org/2000/svg" width="800" height="800" fill="none" viewBox="0 0 800 800">
  <path fill="#FAA91E" d="m653.284 437.646-317 183a85.82 85.82 0 0 1-116.89-31.33l-69.83-120.87a85.838 85.838 0 0 1-8.445-64.908 85.837 85.837 0 0 1 39.765-51.992l317-183a85.83 85.83 0 0 1 116.9 31.32l69.81 120.91a85.84 85.84 0 0 1-31.31 116.87Z"/>
  <path fill="#F28AB8" d="m708.164 171.326 9.52 16.49a54.676 54.676 0 0 1-20.06 74.65l-531.11 306.64a54.677 54.677 0 0 1-74.68-20l-9.52-16.45a54.738 54.738 0 0 1 20-74.71l531.13-306.64a54.762 54.762 0 0 1 74.72 20.02Z"/>
  <path fill="#fff" d="m708.164 171.326 3.56 6.18-625.84 361.33-3.57-6.18a54.738 54.738 0 0 1 20-74.71l531.13-306.64a54.762 54.762 0 0 1 74.72 20.02Z" opacity=".21"/>
  <path fill="#EE4823" d="M579.504 193.627c-9.44 21.71-26.1 10.8-41.38 5.29-24-8.63-50.51-2.19-59.31 22.08-9.17 25.29-2 62.4-50.39 40.8-20.42-9.1-50.2-3-59.3 22.08-9.52 26.24-3.15 63.33-50.35 40.36-22.92-11.16-50.51-2.19-59.31 22.08-11.41 31.47-1.24 55.76-56.2 41.45-40.4-10.53-61.45 20.33-59.63 62.57.44 10.4 16.58 10.12 16.14-.28-2.1-48.66 22.15-51.3 49-44.17 82.65 22 41.08-68 92-69.2 14.81-.35 26.89 12.24 41.78 11.86 53.77-1.39 20-73.19 67.87-74.3 14.82-.34 26.89 12.25 41.79 11.86 53.91-1.39 19.87-73.62 67.91-74.74 15.16-.35 55.16 32.34 73.59-10.06 4.11-9.47-10.05-17.25-14.21-7.68Z"/>
  <path fill="#FDBB38" d="m633.724 303.986 23 39.77a85.822 85.822 0 0 1-31.33 116.89l-317 183a85.82 85.82 0 0 1-116.89-31.33l-23-39.77a85.818 85.818 0 0 1 31.33-116.89l317-183a85.806 85.806 0 0 1 64.908-8.448 85.806 85.806 0 0 1 51.982 39.778Z"/>
  <path fill="#fff" d="m633.724 303.986 10.49 18.15-465.22 268.59-10.49-18.16a85.818 85.818 0 0 1 31.33-116.89l317-183a85.811 85.811 0 0 1 116.89 31.31Z" opacity=".21"/>
</svg>
