<svg xmlns="http://www.w3.org/2000/svg" width="800" height="800" fill="none" viewBox="0 0 800 800">
  <path fill="#FFCF48" d="M614.368 637.418c109.997-184.78 49.365-423.759-135.397-533.737L96 481.586l518.368 155.832Z"/>
  <path fill="#F1932E" d="M614.341 673.109a35.67 35.67 0 0 1-35.653-36.048 35.677 35.677 0 0 1 5.028-17.888c99.76-167.585 44.579-385.079-122.987-484.83A35.677 35.677 0 0 1 444.4 112.45a35.687 35.687 0 0 1 25.827-43.357 35.683 35.683 0 0 1 27.027 3.934C698.611 192.905 764.937 454.285 645.05 655.68a35.657 35.657 0 0 1-30.709 17.429Z"/>
  <path fill="#EC2024" d="M351.621 396.188a53.325 53.325 0 0 1-83.634 52.103 53.332 53.332 0 0 1-20.916-55.44 53.33 53.33 0 0 1 97.207-16.131 53.303 53.303 0 0 1 7.343 19.468Z"/>
  <path fill="#D72027" d="M298.94 461.341a56.465 56.465 0 0 1-9.168-112.16 57.263 57.263 0 0 1 9.29-.768 56.464 56.464 0 1 1-.122 112.928Zm.122-106.672a50.213 50.213 0 0 0-47.2 32.853 50.215 50.215 0 0 0 42.363 67.356 50.22 50.22 0 0 0 54.305-58.159 50.286 50.286 0 0 0-49.468-42.013v-.037Z"/>
  <path fill="#D72627" d="m294.42 350.138-12.352 2.049 17.965 108.283 12.352-2.05-17.965-108.282Z"/>
  <path fill="#D72627" d="m245.379 420.248-2.023-12.362 107.234-18.057 2.023 12.344-107.234 18.075Z"/>
  <path fill="#D72627" d="m323.788 357.686-62.875 87.808 10.15 7.268 62.875-87.808-10.15-7.268Z"/>
  <path fill="#D72627" d="m258.465 368.549-7.284 10.185 87.674 62.699 7.284-10.185-87.674-62.699Z"/>
  <path fill="#FFCF48" d="M455.259 670.895c17.71 46.031-20.735 61.175-46.331 61.175-25.596 0-66.494-21.634-46.331-61.175 19.087-37.462 26.064-135.153 46.331-136.08 33.013-1.498 31.243 96.829 46.331 136.08Zm-102.645-70.559c9.422 24.528-15.837 38.23-35.383 38.23-19.545 0-44.664-13.636-35.382-38.23 9.993-26.495 19.901-84.458 35.382-85.038 25.24-.946 25.24 58.543 35.383 85.038Z"/>
  <path fill="#EC2024" d="M551.46 296.409a81.476 81.476 0 0 1-82.96 94.827 81.478 81.478 0 0 1-10.694-161.827 81.43 81.43 0 0 1 93.654 67Z"/>
  <path fill="#D72027" d="M471.041 400.59a90.84 90.84 0 0 1-90.339-83.424 90.846 90.846 0 0 1 75.551-97.02 91.517 91.517 0 0 1 14.984-1.245 90.843 90.843 0 0 1 71.55 146.705 90.85 90.85 0 0 1-56.762 33.758 92.623 92.623 0 0 1-14.984 1.226Zm.187-162.902a73.795 73.795 0 0 0-11.894.936 72.052 72.052 0 0 0-60.058 76.957 72.046 72.046 0 0 0 71.765 66.176c3.983.01 7.961-.303 11.894-.937a72.058 72.058 0 0 0-11.707-143.141v.009Z"/>
  <path fill="#D72027" d="m466.344 223.633-18.533 3.078 27.968 168.397 18.534-3.078-27.969-168.397Z"/>
  <path fill="#D72027" d="m549.483 284.429-160.674 26.686 3.078 18.533 160.674-26.685-3.078-18.534Z"/>
  <path fill="#D72027" d="m512.138 236.669-93.176 130.242 15.28 10.931L527.417 247.6l-15.279-10.931Z"/>
  <path fill="#D72027" d="m413.525 253.059-10.928 15.281 129.519 92.625 10.929-15.282-129.52-92.624Z"/>
  <path fill="#EC2024" d="M533.47 487.825a50.212 50.212 0 0 1-51.128 58.4 50.21 50.21 0 0 1-45.375-32.45 50.205 50.205 0 0 1 12.611-54.341 50.202 50.202 0 0 1 26.126-12.92 50.204 50.204 0 0 1 50.851 22.976 50.176 50.176 0 0 1 6.915 18.335Z"/>
  <path fill="#D72027" d="M483.871 552.526a56.536 56.536 0 0 1-39.111-15.789 56.533 56.533 0 0 1-3.146-78.202 56.53 56.53 0 1 1 51.622 93.223c-3.095.51-6.228.766-9.365.768Zm.122-100.436a43.963 43.963 0 0 0-.122 87.914 45.24 45.24 0 0 0 7.267-.599 43.954 43.954 0 0 0 36.629-46.948 43.953 43.953 0 0 0-43.774-40.367Z"/>
  <path fill="#D72027" d="m481.464 442.875-12.353 2.051 17.243 103.818 12.353-2.052-17.243-103.817Z"/>
  <path fill="#D72027" d="m532.193 479.966-99.072 16.437 2.05 12.353 99.071-16.437-2.049-12.353Z"/>
  <path fill="#D72027" d="m506.629 451.397-57.259 79.964 10.15 7.268 57.259-79.964-10.15-7.268Z"/>
  <path fill="#D72027" d="m448.71 460.758-7.285 10.184 79.84 57.118 7.286-10.184-79.841-57.118Z"/>
</svg>
