<svg xmlns="http://www.w3.org/2000/svg" width="800" height="800" fill="none" viewBox="0 0 800 800">
  <path fill="#FBCF6E" d="M475.44 179.99H221.26c-44.923 0-81.34 36.417-81.34 81.34v135.91c0 44.923 36.417 81.34 81.34 81.34h254.18c44.923 0 81.34-36.417 81.34-81.34V261.33c0-44.923-36.417-81.34-81.34-81.34Z"/>
  <path fill="#FFE9BF" d="M556.78 201.34v135.9a81.32 81.32 0 0 1-81.33 81.33H221.27a81.312 81.312 0 0 1-57.518-23.815 81.32 81.32 0 0 1-23.822-57.515v-135.9a81.34 81.34 0 0 1 23.821-57.519A81.33 81.33 0 0 1 221.27 120h254.18a81.341 81.341 0 0 1 81.33 81.34Z"/>
  <path fill="#BA4826" d="M289.19 399.74 139.93 257.63v-55.25l176.86 168.38c18.97 18.04-7.94 47.7-27.6 28.98ZM384.25 384 190 199.09c-19.75-18.8 8.7-47 27.6-29L411.85 355c18.97 18.06-7.94 47.71-27.6 29Zm95.07-15.75L285.1 183.35c-19.75-18.8 8.71-47 27.6-29l194.21 184.9c18.97 18.07-7.91 47.75-27.59 29Zm77.46-87.75v55.27L380.16 167.61c-19.74-18.8 8.7-47 27.6-29L556.78 280.5Z"/>
  <path fill="#E8A459" d="M643.66 219.86a81.34 81.34 0 0 1 57.519 23.821A81.33 81.33 0 0 1 725 301.2v254.17a81.351 81.351 0 0 1-81.34 81.35h-135.9a81.344 81.344 0 0 1-81.35-81.35V301.2a81.347 81.347 0 0 1 50.219-75.151 81.35 81.35 0 0 1 31.131-6.189h135.9Z"/>
  <path fill="#F7CA85" d="M447.76 219.86h135.9a81.333 81.333 0 0 1 75.148 50.204A81.328 81.328 0 0 1 665 301.19v254.18a81.305 81.305 0 0 1-23.818 57.522 81.345 81.345 0 0 1-26.391 17.632 81.332 81.332 0 0 1-31.131 6.186h-135.9a81.33 81.33 0 0 1-57.516-23.824 81.33 81.33 0 0 1-23.824-57.516V301.19a81.352 81.352 0 0 1 81.34-81.33Z"/>
  <path fill="#BA4826" d="m646.16 487.45-142.1 149.26H448.8l168.38-176.86c18.05-18.97 47.7 7.94 28.98 27.6Zm-15.74-95.07L445.52 586.6c-18.81 19.75-47-8.7-29-27.6l184.9-194.21c18.07-18.97 47.71 7.94 29 27.59Zm-15.74-95.06-184.9 194.22c-18.81 19.75-47-8.71-29-27.6l184.9-194.22c18.06-18.96 47.71 7.95 29 27.6Zm-87.75-77.46h55.27L414 396.48c-18.79 19.74-47-8.7-29-27.6l141.93-149.02Z"/>
  <path fill="#7B913A" d="m101.78 363.83 14 13.19S83.73 374 75 435.33l5 4.74s-9.37 23.93-.37 50.81l127.86-135.45c-39.13-36.94-84.23-20.07-105.71 8.4Z"/>
  <path fill="#697833" d="m205.2 461.45-14-13.19s4.83 31.8-55.87 44.05l-5-4.74s-23.33 10.75-50.7 3.31l127.86-135.45c39.14 36.94 24.9 82.94-2.29 106.02Z"/>
  <path fill="#7B913A" d="m581.69 645.88 11.08-7.71s-6.66 21.59 34.24 36.4l4-2.77a57.14 57.14 0 0 0 34.89 7.57L591.1 572c-31.02 21.59-25.91 55-9.41 73.88Z"/>
  <path fill="#697833" d="m663.68 588.79-11.08 7.71s22.56 1.25 22.26 44.75l-4 2.77a57.07 57.07 0 0 1-5 35.35L591.1 572c31.03-21.62 60.61-5.22 72.58 16.79Z"/>
  <path fill="#7B913A" d="m603.76 263.6-5.3-12.42s19.79 10.91 42.61-26.12l-1.9-4.46a57.048 57.048 0 0 0 14.51-32.6l-120.35 51.33c14.83 34.78 48.61 36.57 70.43 24.27Z"/>
  <path fill="#697833" d="m564.55 171.7 5.3 12.42s5.81-21.84 48.34-12.7l1.91 4.47A56.999 56.999 0 0 1 653.68 188l-120.35 51.33c-14.84-34.77 7.24-60.39 31.22-67.63Z"/>
</svg>
