<svg xmlns="http://www.w3.org/2000/svg" width="800" height="800" fill="none" viewBox="0 0 800 800">
  <g clip-path="url(#a)">
    <path fill="#FDDD3F" d="M725 361.06c-69.08 175.99-238.16 309.567-446 345.76L75 93.314 725 361.06Z"/>
    <path fill="#FAAF41" d="M620.82 318.154C563.68 462.108 417 575.676 245 605.298L75 93c0 .314 545.82 225.154 545.82 225.154Z"/>
    <path fill="#EE4137" d="M151.71 324.428c.28.897 12.49 36.677 12.49 36.677 94.35-9.461 132.8 106.693 48.3 145.704l12.42 36.803c139.33-54.98 73.44-243.259-73.21-219.184Zm405.76-32.342c10.16 78.92-128 85.661-128 5.467.003-9.244 2.484-18.352 7.234-26.555 4.75-8.202 11.629-15.258 20.056-20.571l-31.44-12.908c-17.545 16.009-27.36 37.577-27.32 60.034 0 109.044 180.58 116.126 191.05 7.549l-31.58-13.016Z"/>
    <path fill="#4C2C1C" d="M236.57 207.431c17.64 10.699 24.22 29.621 14.68 42.305-9.54 12.684-31.57 14.263-49.21 3.591-17.64-10.673-24.21-29.622-14.68-42.315 9.53-12.692 31.58-14.281 49.21-3.581Zm153.29 274.424c-11.11 16.301-31.86 23.051-46.43 15.08-14.57-7.971-17.3-27.656-6.18-43.984 11.12-16.328 31.89-23.042 46.42-15.062 14.53 7.98 17.33 27.629 6.19 43.966Z"/>
    <path fill="#F7EC32" d="M325 313.127h-26c-2.27-11.185-12.19-38.06 13-38.06 25.08 0 15.28 26.812 13 38.06Zm161.57 136.539-18.27 16.642c-10.46-6.409-38.75-18.94-21.06-35.008 17.61-16.049 32.01 9.013 39.33 18.366Zm-256.82-5.323-23.46-10.09c3.33-10.969 7.32-39.056 30.05-29.28 22.66 9.721.88 30.115-6.59 39.37Zm266.32-117.375h-26c-2.27-11.184-12.19-38.059 13-38.059 25.07 0 15.27 26.812 13 38.059ZM161.64 177.306h-26c-2.26-11.185-12.19-38.06 13-38.06 25.08 0 15.28 26.812 13 38.06Z"/>
    <path fill="#D79E84" d="M231.17 213.22c7.21 4.362 9.89 12.1 6 17.27-3.89 5.171-12.89 5.826-20.09 1.454-7.2-4.371-9.89-12.1-6-17.27 3.89-5.17 12.92-5.826 20.09-1.454Zm155.18 256.562c-5.15 7.558-14.79 10.691-21.53 6.984-6.74-3.708-8-12.828-2.87-20.386s14.79-10.69 21.53-6.983c6.74 3.707 8.03 12.827 2.87 20.385Z"/>
  </g>
  <defs>
    <clipPath id="a">
      <path fill="#fff" d="M0 0h650v613.82H0z" transform="translate(75 93)"/>
    </clipPath>
  </defs>
</svg>
