<svg xmlns="http://www.w3.org/2000/svg" width="100" height="100" fill="none" viewBox="0 0 100 100">
    <path fill="#627EEA" d="M50 90c22.091 0 40-17.909 40-40S72.091 10 50 10 10 27.909 10 50s17.909 40 40 40Z"/>
    <path fill="#fff" fill-opacity=".602" d="M51.245 20v22.175l18.742 8.375L51.245 20Z"/>
    <path fill="#fff" d="M51.245 20 32.5 50.55l18.745-8.375V20Z"/>
    <path fill="#fff" fill-opacity=".602" d="M51.245 64.92v15.067L70 54.04 51.245 64.92Z"/>
    <path fill="#fff" d="M51.245 79.987v-15.07L32.5 54.04l18.745 25.947Z"/>
    <path fill="#fff" fill-opacity=".2" d="M51.245 61.432 69.987 50.55l-18.742-8.37v19.252Z"/>
    <path fill="#fff" fill-opacity=".602" d="m32.5 50.55 18.745 10.883V42.18L32.5 50.55Z"/>
  </svg>
  