<svg width="100" height="100" viewBox="0 0 100 100" fill="none" xmlns="http://www.w3.org/2000/svg">
    <path d="M90 50.8965C90 48.2733 89.7675 45.7829 89.3691 43.3589H51.8467V58.3346H73.3308C72.3678 63.249 69.5453 67.3997 65.3614 70.2222V80.1839H78.1788C85.6833 73.2439 90 63.0166 90 50.8965Z" fill="#4285F4"/>
    <path d="M51.8467 89.8467C62.6053 89.8467 71.6041 86.2605 78.1788 80.1839L65.3614 70.2222C61.7752 72.613 57.226 74.0741 51.8467 74.0741C41.4534 74.0741 32.6539 67.0677 29.4993 57.6041H16.2835V67.8646C22.825 80.8812 36.2733 89.8467 51.8467 89.8467Z" fill="#34A853"/>
    <path d="M29.4994 57.6041C28.6692 55.2133 28.2375 52.6565 28.2375 50C28.2375 47.3436 28.7024 44.7867 29.4994 42.3959V32.1354H16.2835C13.5607 37.5147 12 43.5581 12 50C12 56.4419 13.5607 62.4853 16.2835 67.8646L29.4994 57.6041Z" fill="#FBBC05"/>
    <path d="M51.8467 25.9259C57.7241 25.9259 62.9706 27.9515 67.1213 31.9029L78.4776 20.5466C71.6041 14.1047 62.6053 10.1533 51.8467 10.1533C36.2733 10.1533 22.825 19.1188 16.2835 32.1354L29.4993 42.3959C32.6539 32.9323 41.4534 25.9259 51.8467 25.9259Z" fill="#EA4335"/>
</svg>
