<svg xmlns="http://www.w3.org/2000/svg" width="32" height="32" fill="none" viewBox="0 0 32 32">
  <path fill="#E60023" d="M0 16c0 8.837 7.163 16 16 16s16-7.163 16-16S24.837 0 16 0 0 7.163 0 16z"/>
  <path fill="#fff" d="M16 8c-4.4 0-8 3.6-8 8 0 3.3 2 6.1 4.8 7.3 0-.6 0-1.2.1-1.8.2-.7 1-4.4 1-4.4s-.3-.5-.3-1.3c0-1.2.7-2.1 1.5-2.1.7 0 1.1.5 1.1 1.2s-.5 1.8-.7 2.8c-.2.8.4 1.5 1.3 1.5 1.5 0 2.5-1.9 2.5-4.3 0-1.8-1.2-3.1-3.3-3.1-2.4 0-3.9 1.8-3.9 3.8 0 .7.2 1.2.5 1.6.1.2.2.2.1.4 0 .1-.1.5-.2.6-.1.2-.2.3-.4.2-1.1-.5-1.6-1.7-1.6-3.1 0-2.3 1.9-5 5.7-5 3.1 0 5.1 2.2 5.1 4.6 0 3.1-1.7 5.5-4.3 5.5-.9 0-1.7-.5-2-1 0 0-.5 1.8-.6 2.2-.2.6-.5 1.2-.8 1.7.7.2 1.5.3 2.3.3 4.4 0 8-3.6 8-8C24 11.6 20.4 8 16 8z"/>
</svg>
