<svg xmlns="http://www.w3.org/2000/svg" width="32" height="32" fill="none" viewBox="0 0 32 32">
  <path fill="#000" d="M0 16C0 7.163 7.163 0 16 0s16 7.163 16 16-7.163 16-16 16S0 24.837 0 16z"/>
  <path fill="#25F4EE" d="M14.498 14.3v-.623a4.847 4.847 0 00-3.428 8.774 4.83 4.83 0 01-1.302-3.303 4.852 4.852 0 014.73-4.848z"/>
  <path fill="#25F4EE" d="M14.616 21.362c1.191 0 2.166-.95 2.208-2.132l.004-10.56h1.928a3.779 3.779 0 01-.06-.67h-2.633l-.003 10.561a2.215 2.215 0 01-2.209 2.132c-.37 0-.718-.092-1.028-.256a2.198 2.198 0 001.793.925zM22.358 12.254v-.588c-.736 0-1.419-.217-1.995-.594a3.659 3.659 0 001.995 1.182z"/>
  <path fill="#FE2C55" d="M20.363 11.072a3.641 3.641 0 01-.9-2.403h-.704a3.65 3.65 0 001.604 2.403zM13.848 16.262c-1.22 0-2.213.993-2.213 2.214 0 .85.484 1.59 1.188 1.96a2.192 2.192 0 01-.42-1.291c0-1.221.993-2.214 2.213-2.214.227 0 .448.039.654.103v-2.691a4.92 4.92 0 00-.654-.046c-.04 0-.075.003-.114.003v2.065a2.226 2.226 0 00-.655-.103z"/>
  <path fill="#FE2C55" d="M22.358 12.254V14.3a6.264 6.264 0 01-3.663-1.178v5.357a4.855 4.855 0 01-4.848 4.852 4.827 4.827 0 01-2.777-.88A4.839 4.839 0 0014.616 24a4.855 4.855 0 004.847-4.852v-5.357a6.264 6.264 0 003.663 1.178v-2.633c-.266 0-.522-.029-.768-.082z"/>
  <path fill="#fff" d="M18.695 18.48v-5.358a6.264 6.264 0 003.663 1.178v-2.046a3.659 3.659 0 01-1.995-1.182 3.681 3.681 0 01-1.608-2.403h-1.927l-.004 10.561a2.215 2.215 0 01-2.208 2.132c-.74 0-1.39-.366-1.796-.921a2.222 2.222 0 01-1.188-1.962c0-1.22.992-2.214 2.212-2.214.228 0 .448.04.654.103v-2.064a4.846 4.846 0 00-3.428 8.148c.786.551 1.746.879 2.777.879a4.858 4.858 0 004.848-4.852z"/>
</svg>
