<svg xmlns="http://www.w3.org/2000/svg" width="32" height="32" fill="none" viewBox="0 0 32 32">
  <path fill="#1DA1F2" d="M0 16c0 8.837 7.163 16 16 16s16-7.163 16-16S24.837 0 16 0 0 7.163 0 16z"/>
  <path fill="#fff" d="M24 11c-.6.3-1.2.4-1.9.5.7-.4 1.2-1 1.4-1.8-.6.4-1.3.6-2.1.8-.6-.6-1.5-1-2.4-1-2.1 0-3.7 2-3.2 4-2.7-.1-5.1-1.4-6.8-3.4-.9 1.5-.4 3.4 1 4.4-.5 0-1-.2-1.5-.4 0 1.5 1.1 2.9 2.6 3.3-.5.1-1 .2-1.5.1.4 1.3 1.6 2.3 3.1 2.3-1.2.9-3 1.4-4.7 1.2 1.5.9 3.2 1.5 5 1.5 6.1 0 9.5-5.1 9.3-9.8.7-.4 1.3-1 1.7-1.7z"/>
</svg>
