<svg width="100" height="100" viewBox="0 0 100 100" fill="none" xmlns="http://www.w3.org/2000/svg">
    <path d="M89.7728 59.9184C84.2961 81.8827 62.0474 95.2498 40.0781 89.7725C18.1177 84.2965 4.74895 62.0491 10.2282 40.0861C15.7022 18.1193 37.951 4.7509 59.9139 10.2269C81.882 15.7029 95.2494 37.9529 89.7728 59.9184V59.9184Z" fill="#F7931A"/>
    <path d="M67.8981 43.905C68.7096 38.441 64.5795 35.5037 58.9322 33.5442L60.7641 26.1426L56.2913 25.0198L54.5078 32.2264C53.332 31.9312 52.1243 31.6528 50.9243 31.3769L52.7205 24.1228L48.2503 23L46.4171 30.399C45.4438 30.1758 44.4884 29.9551 43.561 29.7228L43.5661 29.6997L37.3977 28.1483L36.2079 32.9604C36.2079 32.9604 39.5265 33.7264 39.4564 33.7739C41.2679 34.2295 41.5953 35.437 41.5405 36.3943L39.4538 44.8263C39.5787 44.8584 39.7405 44.9046 39.9188 44.9765C39.7698 44.9392 39.6106 44.8982 39.4462 44.8584L36.5213 56.6705C36.2996 57.2248 35.7378 58.0563 34.4715 57.7407C34.5161 57.8061 31.2205 56.9233 31.2205 56.9233L29 62.0805L34.8206 63.5421C35.9034 63.8154 36.9646 64.1016 38.0092 64.3711L36.1582 71.8574L40.6259 72.9802L42.459 65.5734C43.6795 65.9071 44.8642 66.2151 46.0235 66.5051L44.1967 73.8772L48.6694 75L50.5204 67.5278C58.1474 68.9817 63.8827 68.3952 66.2968 61.4466C68.242 55.8518 66.1999 52.6245 62.1871 50.52C65.1094 49.8412 67.3108 47.9048 67.8981 43.905V43.905ZM57.6786 58.3399C56.2964 63.9348 46.9445 60.9102 43.9126 60.1518L46.3687 50.2338C49.4007 50.996 59.1233 52.5051 57.6786 58.3399ZM59.0621 43.8241C57.8009 48.9134 50.0172 46.3277 47.4923 45.6938L49.7192 36.6984C52.2441 37.3323 60.3755 38.5154 59.0621 43.8241Z" fill="white"/>
</svg>
