<svg width="100" height="100" viewBox="0 0 100 100" fill="none" xmlns="http://www.w3.org/2000/svg">
    <path d="M50 12C28.405 12 11 29.2075 11 50.5577C11 68.7212 23.5702 83.6981 40.4917 88C40.3306 87.522 40.1694 86.8847 40.1694 86.2474V79.7149H35.3347C32.7562 79.7149 30.3388 78.5996 29.2107 76.369C27.9215 73.979 27.7603 70.4738 24.5372 68.2432C23.5703 67.4465 24.376 66.6499 25.343 66.8092C27.438 67.2872 29.0496 68.5618 30.6612 70.6331C32.2727 72.7044 32.9174 73.1824 35.8182 73.1824C37.1074 73.1824 39.3636 73.0231 41.2975 72.8637C42.4256 70.1551 44.1983 67.7652 46.4545 66.6499C33.4008 65.0566 27.1157 58.6834 27.1157 50.0797C27.1157 46.2558 28.7273 42.7505 31.4669 39.7233C30.6612 36.696 29.3719 30.4822 31.7893 28.0922C37.5909 28.0922 41.1364 31.9161 42.1033 32.8721C45.0041 31.9161 48.2273 31.2788 51.6116 31.2788C54.9959 31.2788 58.219 31.9161 61.1198 32.8721C61.9256 31.9161 65.4711 28.0922 71.4339 28.0922C73.8512 30.4822 72.7231 36.696 71.7562 39.7233C74.4959 42.7505 76.1074 46.4151 76.1074 50.0797C76.1074 58.6834 69.9835 65.0566 56.9298 66.4906C60.4752 68.2432 63.0537 73.501 63.0537 77.3249V86.088C63.0537 86.4067 62.8926 86.7254 62.8926 86.8847C78.0413 81.6268 89 67.4465 89 50.5577C89 29.2075 71.595 12 50 12Z" fill="black"/>
</svg>
