<svg xmlns="http://www.w3.org/2000/svg" width="100" height="99" fill="none" viewBox="0 0 100 99">
  <path fill="#fff" d="M50.3 87.13c20.34 0 36.83-16.49 36.83-36.83S70.64 13.47 50.3 13.47 13.47 29.96 13.47 50.3 29.96 87.13 50.3 87.13Z"/>
  <path fill="#345D9D" d="M50.3 9a41.3 41.3 0 1 0 41.3 41.3A41.179 41.179 0 0 0 50.54 9h-.24Zm.7 42.7-4.3 14.5h23a1.161 1.161 0 0 1 1.2 1.12v.38l-2 6.9a1.49 1.49 0 0 1-1.5 1.1H32.2l5.9-20.1-6.6 2L33 53l6.6-2 8.3-28.2a1.51 1.51 0 0 1 1.5-1.1h8.9a1.161 1.161 0 0 1 1.2 1.12v.38l-7 23.8 6.6-2-1.4 4.8-6.7 1.9Z"/>
</svg>
