<svg width="100" height="100" viewBox="0 0 100 100" fill="none" xmlns="http://www.w3.org/2000/svg">
    <path d="M91.7993 49.3088C91.7993 43.9039 85.0313 38.7818 74.6548 35.6054C77.0494 25.0286 75.9851 16.6136 71.2957 13.9195C70.2148 13.2876 68.951 12.9882 67.5708 12.9882V16.6968C68.3358 16.6968 68.951 16.8465 69.4665 17.1292C71.7281 18.4263 72.7092 23.3655 71.9443 29.7183C71.7613 31.2815 71.462 32.9279 71.0962 34.6076C67.8369 33.8093 64.2783 33.194 60.5367 32.7949C58.2918 29.7183 55.9637 26.9244 53.6191 24.4798C59.0401 19.4408 64.1286 16.6802 67.5875 16.6802V12.9716C63.0145 12.9716 57.028 16.2311 50.975 21.8854C44.9221 16.2644 38.9356 13.0381 34.3626 13.0381V16.7467C37.8048 16.7467 42.9099 19.4907 48.331 24.4964C46.0029 26.941 43.6749 29.7183 41.4632 32.7949C37.705 33.194 34.1464 33.8093 30.8871 34.6242C30.5047 32.9612 30.222 31.3481 30.0224 29.8014C29.2409 23.4487 30.2053 18.5095 32.4503 17.1957C32.9491 16.8964 33.5977 16.7633 34.3626 16.7633V13.0548C32.9658 13.0548 31.702 13.3541 30.6044 13.9861C25.9317 16.6802 24.884 25.0784 27.2953 35.622C16.952 38.8151 10.2172 43.9205 10.2172 49.3088C10.2172 54.7136 16.9852 59.8357 27.3618 63.0121C24.9672 73.5889 26.0315 82.0039 30.7208 84.698C31.8017 85.3299 33.0655 85.6293 34.4624 85.6293C39.0354 85.6293 45.0218 82.3697 51.0748 76.7154C57.1278 82.3365 63.1142 85.5627 67.6872 85.5627C69.0841 85.5627 70.3479 85.2634 71.4454 84.6314C76.1182 81.9373 77.1658 73.5391 74.7546 62.9955C85.0646 59.8191 91.7993 54.697 91.7993 49.3088ZM70.1483 38.2164C69.533 40.3617 68.7681 42.5735 67.9034 44.7853C67.2216 43.4549 66.5066 42.1245 65.725 40.7941C64.9601 39.4636 64.1452 38.1665 63.3304 36.9026C65.6917 37.2518 67.9699 37.6842 70.1483 38.2164ZM62.5322 55.9276C61.2352 58.1727 59.9048 60.3014 58.5246 62.2804C56.0469 62.4966 53.5359 62.613 51.0083 62.613C48.4973 62.613 45.9863 62.4966 43.5252 62.297C42.145 60.318 40.798 58.2059 39.501 55.9775C38.2372 53.7989 37.0898 51.5871 36.0421 49.3586C37.0731 47.1302 38.2372 44.9017 39.4844 42.7232C40.7814 40.4781 42.1117 38.3494 43.492 36.3704C45.9697 36.1542 48.4807 36.0378 51.0083 36.0378C53.5193 36.0378 56.0303 36.1542 58.4914 36.3538C59.8716 38.3328 61.2185 40.4448 62.5156 42.6733C63.7794 44.8518 64.9268 47.0637 65.9744 49.2921C64.9268 51.5206 63.7794 53.749 62.5322 55.9276ZM67.9034 53.7657C68.8014 55.9941 69.5663 58.2226 70.1982 60.3845C68.0198 60.9167 65.725 61.3657 63.347 61.7149C64.1619 60.4344 64.9767 59.1206 65.7416 57.7736C66.5066 56.4431 67.2216 55.0961 67.9034 53.7657ZM51.0415 71.5102C49.495 69.9137 47.9485 68.1342 46.4187 66.1885C47.9153 66.255 49.4452 66.3049 50.9917 66.3049C52.5548 66.3049 54.1013 66.2716 55.6145 66.1885C54.1179 68.1342 52.5714 69.9137 51.0415 71.5102ZM38.6695 61.7149C36.3082 61.3657 34.03 60.9333 31.8516 60.4011C32.4669 58.2558 33.2318 56.044 34.0965 53.8322C34.7783 55.1626 35.4934 56.493 36.2749 57.8235C37.0565 59.1539 37.8547 60.451 38.6695 61.7149ZM50.9584 27.1073C52.5049 28.7038 54.0514 30.4833 55.5813 32.429C54.0847 32.3625 52.5548 32.3126 51.0083 32.3126C49.4452 32.3126 47.8987 32.3459 46.3854 32.429C47.882 30.4833 49.4285 28.7038 50.9584 27.1073ZM38.6529 36.9026C37.8381 38.1831 37.0233 39.4969 36.2583 40.8439C35.4934 42.1744 34.7783 43.5048 34.0965 44.8352C33.1986 42.6068 32.4336 40.3783 31.8017 38.2164C33.9801 37.7008 36.275 37.2518 38.6529 36.9026ZM23.6036 57.7237C17.7169 55.2125 13.9089 51.9197 13.9089 49.3088C13.9089 46.6978 17.7169 43.3884 23.6036 40.8938C25.0337 40.2785 26.5968 39.7297 28.2099 39.2142C29.1577 42.4737 30.4049 45.8663 31.9514 49.342C30.4215 52.8011 29.191 56.1771 28.2597 59.42C26.6135 58.9044 25.0503 58.339 23.6036 57.7237ZM32.55 81.4883C30.2885 80.1912 29.3074 75.252 30.0723 68.8992C30.2552 67.336 30.5546 65.6896 30.9204 64.0099C34.1797 64.8082 37.7383 65.4235 41.4798 65.8226C43.7248 68.8992 46.0528 71.6931 48.3975 74.1377C42.9765 79.1767 37.888 81.9373 34.4291 81.9373C33.6808 81.9207 33.0489 81.771 32.55 81.4883ZM71.9942 68.8161C72.7757 75.1688 71.8112 80.108 69.5663 81.4218C69.0674 81.7212 68.4189 81.8542 67.654 81.8542C64.2118 81.8542 59.1066 79.1102 53.6856 74.1045C56.0136 71.6598 58.3417 68.8826 60.5534 65.806C64.3115 65.4069 67.8701 64.7915 71.1294 63.9767C71.5119 65.6563 71.8112 67.2694 71.9942 68.8161ZM78.3963 57.7237C76.9662 58.339 75.4031 58.8878 73.7901 59.4033C72.8422 56.1438 71.5951 52.7512 70.0486 49.2755C71.5784 45.8164 72.809 42.4405 73.7402 39.1975C75.3865 39.7131 76.9496 40.2785 78.413 40.8938C84.2996 43.405 88.1077 46.6978 88.1077 49.3088C88.0911 51.9197 84.283 55.2291 78.3963 57.7237Z" fill="#61DAFB"/>
    <path d="M50.9917 56.9088C55.1887 56.9088 58.5911 53.5061 58.5911 49.3088C58.5911 45.1114 55.1887 41.7087 50.9917 41.7087C46.7946 41.7087 43.3922 45.1114 43.3922 49.3088C43.3922 53.5061 46.7946 56.9088 50.9917 56.9088Z" fill="#61DAFB"/>
</svg>
